<?xml version="1.0" encoding="UTF-8" standalone="no"?>
<!-- Created with Inkscape (http://www.inkscape.org/) -->

<svg
   xmlns:dc="http://purl.org/dc/elements/1.1/"
   xmlns:cc="http://creativecommons.org/ns#"
   xmlns:rdf="http://www.w3.org/1999/02/22-rdf-syntax-ns#"
   xmlns:svg="http://www.w3.org/2000/svg"
   xmlns="http://www.w3.org/2000/svg"
   xmlns:sodipodi="http://sodipodi.sourceforge.net/DTD/sodipodi-0.dtd"
   xmlns:inkscape="http://www.inkscape.org/namespaces/inkscape"
   width="500"
   height="500"
   viewBox="0 0 132.29166 132.29167"
   version="1.1"
   id="svg8"
   inkscape:version="0.92.1 r15371"
   sodipodi:docname="pincel.svg">
  <defs
     id="defs2" />
  <sodipodi:namedview
     id="base"
     pagecolor="#ffffff"
     bordercolor="#666666"
     borderopacity="1.0"
     inkscape:pageopacity="0.0"
     inkscape:pageshadow="2"
     inkscape:zoom="0.80046697"
     inkscape:cx="-1.6080665"
     inkscape:cy="410.51661"
     inkscape:document-units="mm"
     inkscape:current-layer="layer1"
     showgrid="false"
     units="px"
     inkscape:window-width="1920"
     inkscape:window-height="1001"
     inkscape:window-x="-9"
     inkscape:window-y="-9"
     inkscape:window-maximized="1" />
  <metadata
     id="metadata5">
    <rdf:RDF>
      <cc:Work
         rdf:about="">
        <dc:format>image/svg+xml</dc:format>
        <dc:type
           rdf:resource="http://purl.org/dc/dcmitype/StillImage" />
        <dc:title></dc:title>
      </cc:Work>
    </rdf:RDF>
  </metadata>
  <g
     inkscape:label="Layer 1"
     inkscape:groupmode="layer"
     id="layer1"
     transform="translate(0,-164.70832)">
    <ellipse
       style="opacity:1;fill:#858176;fill-opacity:1;stroke:none;stroke-width:9.71936035;stroke-linecap:round;stroke-linejoin:miter;stroke-miterlimit:4;stroke-dasharray:none;stroke-dashoffset:0;stroke-opacity:1"
       id="path4575"
       cx="66.107254"
       cy="230.56221"
       rx="65.776711"
       ry="64.454567" />
    <g
       id="g4584"
       transform="matrix(0.82722732,0,0,0.79888157,14.057479,40.950045)">
      <path
         sodipodi:nodetypes="sssssssss"
         inkscape:connector-curvature="0"
         id="rect4485"
         d="m 205.77115,129.81449 16.51514,1.48274 c 0.70734,0.0635 5.4132,6.27016 5.37435,6.96575 l -4.94123,88.47146 c -0.0388,0.69559 -6.23887,3.11751 -6.90384,3.27057 l -0.13093,0.0301 c -0.66498,0.15307 -6.42113,-5.3402 -6.49375,-6.04787 l -8.78248,-85.57323 c -0.0726,-0.70767 4.6554,-8.66305 5.36274,-8.59955 z"
         style="opacity:1;fill:#18ff4f;fill-opacity:1;stroke:none;stroke-width:12.135849;stroke-linecap:round;stroke-linejoin:miter;stroke-miterlimit:4;stroke-dasharray:none;stroke-dashoffset:0;stroke-opacity:1"
         transform="matrix(0.79646473,0.60468499,-0.70455631,0.70964808,0,0)" />
      <rect
         transform="matrix(0.73705476,0.67583303,-0.75105302,0.6602419,0,0)"
         ry="0.5288316"
         y="105.65414"
         x="210.67615"
         height="2.8870087"
         width="17.879524"
         id="rect4488"
         style="opacity:1;fill:#d4ff2a;fill-opacity:1;stroke:none;stroke-width:5.042274;stroke-linecap:round;stroke-linejoin:miter;stroke-miterlimit:4;stroke-dasharray:none;stroke-dashoffset:0;stroke-opacity:1" />
      <path
         sodipodi:nodetypes="zsaazasz"
         inkscape:connector-curvature="0"
         id="rect4490"
         d="m 102.66986,170.91978 c -0.57349,-1.70366 9.28784,9.239 10.47849,15.05849 1.38811,6.78453 0.0274,12.09619 -2.82187,17.33356 -3.82653,7.03361 -9.66218,15.0303 -18.062188,16.88787 -2.743372,0.60667 -4.612463,0.0119 -8.034959,-2.4341 -3.422495,-2.44654 -5.404938,-7.92838 -4.45387,-12.08847 1.02642,-4.4897 5.102203,-10.70951 10.129441,-10.23592 9.493165,0.8943 13.338456,-22.81778 12.764956,-24.52143 z"
         style="opacity:1;fill:#18ff4f;fill-opacity:1;stroke:none;stroke-width:13.54227448;stroke-linecap:round;stroke-linejoin:miter;stroke-miterlimit:4;stroke-dasharray:none;stroke-dashoffset:0;stroke-opacity:1" />
      <path
         sodipodi:nodetypes="cccccc"
         inkscape:connector-curvature="0"
         id="path4567"
         d="m 9.4032546,293.92146 8.4448664,1.64783 66.234235,-60.03883 0.81044,-7.41492 -6.828844,-6.37481 z"
         style="fill:#6fc763;fill-opacity:1;stroke:none;stroke-width:0.26458332px;stroke-linecap:butt;stroke-linejoin:miter;stroke-opacity:1" />
      <path
         inkscape:connector-curvature="0"
         id="path4569"
         d="m 79.802873,219.51866 2.010562,-2.04844 7.283718,6.68159 -2.293768,1.96883 z"
         style="fill:#6fc763;fill-opacity:1;stroke:none;stroke-width:0.27657008px;stroke-linecap:butt;stroke-linejoin:miter;stroke-opacity:1" />
      <path
         inkscape:connector-curvature="0"
         id="path4571"
         d="m 81.813433,217.47022 v 0"
         style="fill:none;stroke:#000000;stroke-width:0.26458332px;stroke-linecap:butt;stroke-linejoin:miter;stroke-opacity:1" />
      <path
         sodipodi:nodetypes="ccsszzzsscc"
         inkscape:connector-curvature="0"
         id="path4573"
         d="M 83.053276,217.22424 111.89325,182.6512 c 0,0 1.3582,1.39342 1.79802,4.30458 0.21845,1.44591 0.32022,4.59958 -0.0516,7.0919 -0.37677,2.5257 -0.42943,2.56726 -1.14542,4.54812 -0.71599,1.98084 -1.69489,4.19212 -3.48017,7.09177 -1.78528,2.89964 -4.88591,7.39015 -7.6072,9.98624 -2.721282,2.59609 -6.289314,4.57819 -9.594162,5.00401 -1.176611,0.1516 -2.161071,0.32005 -3.56995,-0.24234 -2.505153,-0.99999 -4.962278,-3.46947 -4.962278,-3.46947 z"
         style="fill:#6fc763;fill-opacity:1;stroke:none;stroke-width:0.26727283px;stroke-linecap:butt;stroke-linejoin:miter;stroke-opacity:1" />
    </g>
  </g>
</svg>
